<?xml version="1.0" encoding="UTF-8"?>
<svg id="Layer_2" data-name="Layer 2" xmlns="http://www.w3.org/2000/svg" viewBox="0 0 255.6 256">
  <defs>
    <style>
      .cls-1 {
        fill: #ccc;
      }
    </style>
  </defs>
  <g id="Layer_2-2" data-name="Layer 2">
    <g>
      <path class="cls-1" d="M255.6,170.5v36c-2.19,8.55-8.8,14.51-18.05,14.51l-219.92-.02c-8.7,0-16.86-6.65-17.25-15.58-.51-11.38-.5-22.45,0-33.83.4-8.93,8.55-15.58,17.25-15.58l219.92-.02c9.26,0,15.87,5.95,18.05,14.51ZM218.45,193.46c4.47,0,7.29-4.05,7.17-7.69-.13-3.86-3.23-7.26-7.45-7.26h-39.92c-4.39,0-7.58,3.71-7.45,7.73.12,3.79,3.22,7.26,7.46,7.26l40.2-.03ZM44.98,188.5c0-4.13-3.34-7.47-7.46-7.47s-7.46,3.34-7.46,7.47,3.34,7.47,7.46,7.47,7.46-3.34,7.46-7.47ZM74.93,188.5c0-4.13-3.34-7.47-7.46-7.47s-7.46,3.34-7.46,7.47,3.34,7.47,7.46,7.47,7.46-3.34,7.46-7.47ZM104.87,188.5c0-4.13-3.34-7.47-7.46-7.47s-7.46,3.34-7.46,7.47,3.34,7.47,7.46,7.47,7.46-3.34,7.46-7.47Z"/>
      <path class="cls-1" d="M40.52,0c9.6,2.41,15.85,10.72,14.28,21.01l15.66-.02v15s-15.47.02-15.47.02v104.99s-34.93,0-34.93,0V17.57c.01-9.11,6.3-15.38,14.48-17.57h5.99Z"/>
      <path class="cls-1" d="M221.17,0c8.4,2.2,14.66,8.78,14.47,18.08v122.92s-34.93,0-34.93,0V36.02s-15.47-.03-15.47-.03v-14.97s15.67-.09,15.67-.09c-1.56-10.65,4.91-18.49,14.27-20.94h5.99Z"/>
      <path class="cls-1" d="M230.07,256H25.64c-2.7-1.44-5.52-3.41-5.53-6.99v-13.01s215.49,0,215.49,0l.08,12.01c.03,3.96-2.32,6.46-5.61,7.99Z"/>
      <path class="cls-1" d="M158.07,45.96l-60.13.03c-7.31,0-12.53-5.91-12.53-12.95v-9.08c0-7.04,5.22-12.95,12.53-12.95h59.84c6.99,0,12.48,5.59,12.47,12.45v10.12c0,6.47-5.14,12.38-12.18,12.39Z"/>
      <path class="cls-1" d="M180.22,141h-104.75s-.04-12.01-.04-12.01c-.02-4.4,2.98-7.85,7.56-7.99h89.72c4.57.01,7.59,3.72,7.56,7.96l-.05,12.04Z"/>
      <path class="cls-1" d="M135.33,98.32c0,4.62-3.7,7.79-7.71,7.66s-7.28-3.58-7.27-7.95l.03-15.5-6.58-4.4c-2.43-1.63-3.46-4.18-3.44-7.1l.05-10.02h34.91s.02,10.54.02,10.54c0,2.65-1.23,5.12-3.4,6.57l-6.59,4.43v15.78Z"/>
    </g>
  </g>
</svg>