<?xml version="1.0" encoding="UTF-8"?>
<svg id="Layer_2" data-name="Layer 2" xmlns="http://www.w3.org/2000/svg" viewBox="0 0 229.9 226.59">
  <defs>
    <style>
      .cls-1 {
        fill: #ccc;
      }
    </style>
  </defs>
  <g id="Layer_3" data-name="Layer 3">
    <g>
      <path class="cls-1" d="M110.84,195.39l.03-61.71-22.49-.02v41.51c0,.78-.56,2.3-1.04,2.78l-15.57,15.64c4.29,7.26,2.31,15.77-3.85,20.66-6.23,4.94-15.18,4.39-20.85-1.28s-6.33-14.64-1.18-21.1c4.79-6.01,13.48-7.9,20.55-3.73l14.75-14.7.03-39.78-22.48.03v33.03c-.12,1.66-1.51,3.76-3.34,3.77l-20.18.1c-2.18,7.98-9.45,12.76-17.11,11.86-7.9-.92-13.91-7.63-14.02-15.51-.12-7.95,5.74-14.81,13.62-15.93,7.79-1.11,15.3,3.65,17.5,11.81l15.85.06.02-28.94-17.03-.02C16.4,132.83,1.78,118.98.16,101.27c-1.65-18.01,9.89-33.99,27.32-38.21.42-16.32,14.3-28.6,30.47-27.71,4.37-10.77,12.55-18.62,22.87-23.41,13.24-5.98,28.13-6.69,41.56-.89,14.36-12.55,34.68-14.57,51.32-5.21,12.21,6.87,20.25,18.75,21.98,32.67,18.16,5.19,30.83,19.76,33.64,38.17,2.25,14.77-1.98,29.06-11.97,40.16-9.8,10.94-23.52,17.41-38.53,16.8v29.19s15.76.05,15.76.05c1.95-6.68,7.43-11.48,14.14-11.98,6.96-.52,13.58,3.37,16.1,10.11,3.2,8.55-1.57,17.73-9.95,20.5-8.56,2.83-17.7-2.09-20.2-11.18l-19.34-.03c-2.39,0-4.14-1.67-4.16-4.1v-32.5s-22.74-.03-22.74-.03v39.95s14.54,14.58,14.54,14.58c6.94-4.15,15.44-2.42,20.32,3.45,5.25,6.3,4.78,15.31-.73,21.08-5.55,5.81-14.48,6.54-20.82,1.75-6.4-4.83-8.44-13.57-4.17-20.94l-15-15.05c-.8-.8-1.33-2.11-1.57-3.31v-41.5s-22.46-.01-22.46-.01l-.02,61.64c7.75,2.22,12.78,9.23,11.91,17.14-.86,7.82-7.46,13.92-15.27,14.14-7.8.22-14.62-5.44-15.98-12.86-1.49-8.09,3.01-15.88,11.68-18.33ZM7.67,98.02c.09,15.65,13.02,28.03,28.46,28l147.26-.31c18.07-.04,33.62-14.98,37.73-31.86,2.89-11.89.22-23.82-6.52-33.48-5.54-7.95-13.74-12.92-22.89-15.64-1.82-.54-3.09-1.67-3.23-3.63-1-13.69-9.31-25.29-21.81-30.78-13.78-6.05-29.63-3.28-40.32,7.29-2.07,2.04-3.81,1.62-6.35.48-15.13-6.74-33.32-3.66-45.85,7.14-4.97,4.28-8.14,9.49-9.96,15.65-1.7,5.74-11.34-2.32-22.17,7.93-4.63,4.38-7.06,10.64-6.54,17.42.15,2-1.39,3.72-3.4,3.97-14.06,1.75-24.5,13-24.41,27.82ZM28.04,166.44c0-4.51-3.65-8.16-8.15-8.16s-8.15,3.65-8.15,8.16,3.65,8.16,8.15,8.16,8.15-3.65,8.15-8.16ZM218.15,166.45c0-4.51-3.65-8.17-8.16-8.17s-8.16,3.66-8.16,8.17,3.65,8.17,8.16,8.17,8.16-3.66,8.16-8.17ZM66.58,201.49c0-4.5-3.64-8.14-8.13-8.14s-8.13,3.65-8.13,8.14,3.64,8.14,8.13,8.14,8.13-3.65,8.13-8.14ZM179.52,201.53c0-4.5-3.64-8.15-8.13-8.15s-8.13,3.65-8.13,8.15,3.64,8.15,8.13,8.15,8.13-3.65,8.13-8.15ZM123.08,210.73c0-4.51-3.65-8.16-8.14-8.16s-8.14,3.65-8.14,8.16,3.65,8.16,8.14,8.16,8.14-3.65,8.14-8.16Z"/>
      <path class="cls-1" d="M7.67,98.02c-.08-14.82,10.35-26.06,24.41-27.82,2-.25,3.55-1.97,3.4-3.97-.52-6.78,1.91-13.04,6.54-17.42,10.83-10.25,20.47-2.19,22.17-7.93,1.82-6.16,4.99-11.37,9.96-15.65,12.53-10.8,30.72-13.88,45.85-7.14,2.54,1.13,4.28,1.56,6.35-.48,10.69-10.57,26.53-13.34,40.32-7.29,12.51,5.49,20.81,17.09,21.81,30.78.14,1.96,1.41,3.09,3.23,3.63,9.14,2.72,17.34,7.7,22.89,15.64,6.74,9.66,9.41,21.59,6.52,33.48-4.1,16.88-19.66,31.83-37.73,31.86l-147.26.31c-15.44.03-28.37-12.35-28.46-28Z"/>
    </g>
  </g>
</svg>