<?xml version="1.0" encoding="UTF-8"?>
<svg id="Layer_2" data-name="Layer 2" xmlns="http://www.w3.org/2000/svg" viewBox="0 0 240.95 117">
  <defs>
    <style>
      .cls-1 {
        fill: #ccc;
      }
    </style>
  </defs>
  <g id="Layer_11" data-name="Layer 11">
    <g>
      <path class="cls-1" d="M223.21,100.5c-22.45,20.98-58.24,22.44-79.86.83l-63.76-63.74C57.1,15.1,12.97,37.65.13,61.82-1.51,37.36,12.35,15,34.49,5.15c21.5-9.57,46.92-5.75,63.74,11.07l63.45,63.46c6.05,6.05,13.83,8.97,22.31,9,6.09.03,11.61-1.33,17.45-2.98,16.73-4.74,30.32-15.46,39.32-30.35,1.41,17.42-5.22,33.63-17.55,45.15Z"/>
      <path class="cls-1" d="M83.92,110.93c-29.36,16.08-71.58-1.34-81.03-34.03,4.82-14.31,14.75-26.38,28.98-33.23-3.94,8.38-4.62,16.66-1.6,25.08,4.37,13.01,13.18,23.71,24.62,31.28,8.73,5.73,18.01,8.86,29.03,10.9Z"/>
      <path class="cls-1" d="M209.19,73.3c4.39-9.92,4.47-19.77.03-29.22-9.76-20.77-29.14-35.16-52.28-37.97,31.75-15.52,69.92.35,81.2,34.11-5,14.17-14.56,26.18-28.95,33.08Z"/>
      <path class="cls-1" d="M162.7,36.37l-16.05,16.03-20.05-20.03,18.24-18.14c15.53-.92,30.73,4.05,42.47,14.46-9.31-.92-18.03,1.1-24.62,7.68Z"/>
      <path class="cls-1" d="M96.25,102.72c-15.47,1.02-30.6-3.94-42.62-14.38,10.05,1.12,19.44-1.8,26.2-9.15l14.57-14.59,20.03,20.08-18.19,18.04Z"/>
    </g>
  </g>
</svg>